<svg height="470pt" viewBox="0 -1 470.544 470" width="470pt" xmlns="http://www.w3.org/2000/svg" xmlns:xlink="http://www.w3.org/1999/xlink">
<linearGradient id="a" gradientUnits="userSpaceOnUse" x1="31.672" x2="438.872" y1="448.04" y2="40.848">
    <stop offset="0" stop-color="#080f25"/><stop offset="1" stop-color="#c8520a"/>
</linearGradient>
<path d="m156.121094 283c3.433594 14.429688 16.316406 24.621094 31.152344 24.640625 0 13.253906 10.742187 24 24 24h8c4.417968 0 8-3.582031 8-8v-196c0-4.417969-3.582032-8-8-8-18.949219-.085937-35.304688 13.265625-39.015626 31.847656-8.90625 4.734375-15.058593 13.386719-16.601562 23.351563-14.785156 6.25-24.390625 20.746094-24.382812 36.800781v.167969c-12.726563 9.511718-18.59375 25.667968-14.933594 41.125 3.65625 15.460937 16.140625 27.273437 31.78125 30.074218zm34.007812-118.398438c3.007813-1.03125 5.121094-3.746093 5.382813-6.914062.695312-9.40625 6.875-17.519531 15.761719-20.6875v80.519531c-4.160157-2.402343-7.023438-6.546875-7.792969-11.289062-.113281-.859375-.160157-1.722657-.136719-2.589844 0-4.417969-3.582031-8-8-8h-.304688c-7.769531-.09375-14.339843-5.777344-15.554687-13.453125s3.28125-15.109375 10.644531-17.59375zm-38.511718 58.238282c2.835937-1.601563 4.421874-4.765625 4-8l-.128907-.929688c-.125-.75-.199219-1.507812-.214843-2.269531 0-7.941406 3.929687-15.371094 10.496093-19.839844 3.921875 9.574219 12.230469 16.667969 22.300781 19.039063 2.667969 11.628906 11.632813 20.777344 23.203126 23.6875v81.113281c-4.417969 0-8-3.582031-8-8v-9.472656c-.003907-2.597657-1.265626-5.03125-3.386719-6.53125-2.121094-1.496094-4.839844-1.871094-7.285157-1.003907-4.136718 1.5625-8.742187 1.300782-12.675781-.722656-3.933593-2.019531-6.828125-5.613281-7.964843-9.886718 9.519531-5.761719 15.332031-16.085938 15.3125-27.214844v-1.167969c0-4.417969-3.582032-8-8-8-4.417969 0-8 3.582031-8 8v1.167969c.023437 6.054687-3.386719 11.601562-8.800782 14.3125l-.738281.359375c-10.597656-.621094-19.507813-8.179688-21.847656-18.539063-2.335938-10.359375 2.460937-21.011718 11.769531-26.125zm99.65625 108.800781h8c13.253906 0 24-10.746094 24-24 14.832031-.019531 27.714843-10.210937 31.152343-24.640625 15.632813-2.800781 28.113281-14.613281 31.769531-30.070312 3.660157-15.457032-2.203124-31.609376-14.921874-41.121094v-.167969c.003906-16.054687-9.601563-30.550781-24.386719-36.800781-1.535157-9.972656-7.6875-18.636719-16.597657-23.375-3.722656-18.574219-20.074218-31.910156-39.015624-31.824219-4.417969 0-8 3.582031-8 8v196c0 4.417969 3.582031 8 8 8zm64-120c-.027344.757813-.101563 1.511719-.234376 2.253906l-.128906.929688c-.417968 3.230469 1.164063 6.398437 4 8 9.296875 5.109375 14.09375 15.753906 11.765625 26.101562-2.328125 10.347657-11.214843 17.914063-21.804687 18.554688l-.734375-.359375c-5.441407-2.691406-8.878907-8.242188-8.863281-14.3125v-1.167969c0-4.417969-3.582032-8-8-8-4.417969 0-8 3.582031-8 8v1.167969c-.015626 11.121094 5.792968 21.441406 15.3125 27.199218-1.140626 4.273438-4.03125 7.867188-7.964844 9.886719-3.933594 2.023438-8.539063 2.285157-12.675782.722657-2.453124-.871094-5.171874-.492188-7.292968 1.007812-2.125 1.503906-3.382813 3.941406-3.378906 6.542969v9.472656c0 4.417969-3.582032 8-8 8v-81.113281c11.570312-2.90625 20.53125-12.058594 23.199218-23.6875 10.074219-2.367188 18.386719-9.453125 22.320313-19.023438 6.554687 4.46875 10.476562 11.890625 10.480469 19.824219zm-56-74.640625c8.882812 3.167969 15.0625 11.273438 15.757812 20.679688.261719 3.167968 2.375 5.882812 5.382812 6.914062 7.363282 2.484375 11.859376 9.917969 10.648438 17.59375-1.214844 7.675781-7.789062 13.359375-15.558594 13.453125-2.183594-.117187-4.316406.675781-5.890625 2.191406-1.578125 1.519531-2.449219 3.621094-2.414062 5.808594.023437.875-.023438 1.75-.136719 2.617187-.773438 4.734376-3.632812 8.871094-7.789062 11.269532zm-167.203126 75.648438c-5.003906 48.101562 14.46875 95.5 51.839844 126.191406 17.1875 13.863281 27.234375 34.71875 27.363282 56.800781v64c0 4.417969 3.582031 8 8 8h112c4.417968 0 8-3.582031 8-8v-64c.042968-21.996094 10.007812-42.796875 27.117187-56.617187 50.441406-41.195313 66.957031-111.117188 40.273437-170.527344-26.683593-59.410156-89.917968-93.515625-154.21875-83.175782-64.300781 10.339844-113.660156 62.546876-120.375 127.328126zm191.203126 206.992187h-96v-16h96zm-96 32v-16h96v16zm33.34375-351.199219c56.441406-6.546875 110.4375 24.921875 132.566406 77.253906 22.132812 52.332032 7.09375 112.992188-36.917969 148.929688-18.652344 15.113281-30.417969 37.109375-32.632813 61.015625h-96.730468c-2.285156-23.972656-14.101563-46.019531-32.796875-61.191406-39.738281-32.570313-56.132813-85.753907-41.625-135.042969 14.503906-49.289062 57.09375-85.113281 108.136719-90.964844zm22.65625-80.800781h-16v-16h16zm0 48h-16v-16h16zm-175.59375 27.71875-11.320313-11.3125 11.3125-11.320313 11.320313 11.3125zm33.9375 33.9375-11.3125-11.3125 11.3125-11.3125 11.3125 11.3125zm-67.882813-67.882813-11.308594-11.308593 11.308594-11.3125 11.3125 11.3125zm41.128906 361.945313-11.3125-11.320313 11.320313-11.3125 11.3125 11.320313zm45.257813-45.253906-11.3125 11.308593-11.3125-11.308593 11.3125-11.3125zm-90.503906 67.878906 11.3125-11.3125 11.308593 11.3125-11.308593 11.3125zm-2.34375-202.34375v16h-16v-16zm48 0v16h-16v-16zm-3.890626-56.695313-71.382812-32 6.542969-14.609374 71.386719 32zm-62.765624 153.390626 71.382812-32 6.542969 14.609374-71.382813 32zm148.796874-261.328126-33.421874-72 14.511718-6.734374 33.433594 72zm211.488282 50.289063-11.308594-11.3125 11.308594-11.3125 11.3125 11.3125zm33.9375-33.9375-11.289063-11.320313 11.320313-11.3125 11.3125 11.320313zm33.945312-33.945313-11.289062-11.308593 11.3125-11.3125 11.3125 11.3125zm4.117188 384.570313-11.308594 11.3125-11.3125-11.3125 11.3125-11.3125zm-45.246094-22.625-11.320312-11.3125 11.3125-11.320313 11.320312 11.3125zm-22.632812-45.253906-11.3125 11.308593-11.3125-11.308593 11.3125-11.3125zm22.25-134.464844h16v16h-16zm48 16v-16h16v16zm-50.65625-87.304687 71.382812-32 6.542969 14.609374-71.382813 32zm62.765624 182.609374-71.382812-32 6.542969-14.609374 71.386719 32zm-142.277343-275.9375-14.519531-6.734374 33.429687-72 14.511719 6.734374zm0 0" fill="url(#a)"/></svg>